<svg xmlns="http://www.w3.org/2000/svg" viewBox="0 0 320 85" width="100%" height="100%" preserveAspectRatio="xMidYMid meet">
  <!-- Mindray Official Brand Logo -->
  <g fill="#E30613">
    <!-- m -->
    <path d="M 22,58 L 22,34 C 22,29.5 24.5,27 28.5,27 C 32.5,27 34.8,29.5 35.8,33 C 38,29 41.5,27 46,27 C 51.5,27 54.5,30.5 54.5,36.5 L 54.5,58 L 47.5,58 L 47.5,38.5 C 47.5,34.5 45.5,33 42.5,33 C 39.5,33 37.5,35 37.5,39 L 37.5,58 L 30.5,58 L 30.5,38.5 C 30.5,34.5 29,33 26.5,33 C 24,33 22.5,35 22.5,39 L 22.5,58 Z" />
    <!-- i -->
    <circle cx="65" cy="19" r="4.3" />
    <rect x="61.5" y="27" width="7" height="31" rx="0.8" />
    <!-- n -->
    <path d="M 78,58 L 78,27 L 85,27 L 85,32.5 C 87.5,28.8 91.5,27 96.5,27 C 103.5,27 107,31 107,37.5 L 107,58 L 100,58 L 100,38.5 C 100,34.5 98,33 94.5,33 C 90.5,33 85.5,35.5 85.5,40 L 85.5,58 Z" />
    <!-- d -->
    <path d="M 129,14 L 136,14 L 136,58 L 129,58 L 129,52.5 C 126.5,56.5 122,58.5 116.5,58.5 C 107,58.5 101,50.5 101,43 C 101,35 107,27 116.5,27 C 121.5,27 126,29 129,33 Z M 118.5,33.5 C 112.5,33.5 108.5,38 108.5,43 C 108.5,48 112.5,52.5 118.5,52.5 C 124.5,52.5 129,48 129,43 C 129,37.8 124.5,33.5 118.5,33.5 Z" />
    <!-- r -->
    <path d="M 145,58 L 145,27 L 152,27 L 152,33.5 C 154.5,29 159,27 164,27.5 L 164,35 C 158.5,34.5 152.5,37 152.5,43 L 152.5,58 Z" />
    <!-- a -->
    <path d="M 189,58 L 189,53 C 186.5,56.8 182,58.5 176.5,58.5 C 168,58.5 162.5,53 162.5,45.5 C 162.5,38 168.5,33 177.5,33 C 181.5,33 185.5,34 189,36 L 189,34.5 C 189,30.5 185.5,28 180,28 C 175.5,28 171.5,29.5 168,31.5 L 165.5,26 C 170,23.5 175.5,22 181.5,22 C 191.5,22 196.5,27 196.5,36 L 196.5,58 Z M 189,42 C 186,40 182.5,39 178.5,39 C 173,39 169.5,41.5 169.5,45.5 C 169.5,49 173,52 177.5,52 C 183,52 189,48 189,42 Z" />
    <!-- y -->
    <path d="M 203,27 L 210.5,27 L 217,46 L 223.5,27 L 231,27 L 221,53.5 C 217.5,62.5 213,66 206,66 C 203.5,66 201,65.5 199,64.5 L 200.5,58.5 C 202,59.2 203.5,59.5 205.5,59.5 C 209,59.5 211.5,57.5 213.5,52.5 Z" />
  </g>
</svg>
